<?xml version="1.0" encoding="utf-8"?>
<!-- Generator: Adobe Illustrator 24.2.3, SVG Export Plug-In . SVG Version: 6.00 Build 0)  -->
<svg version="1.1" id="Capa_1" xmlns="http://www.w3.org/2000/svg" xmlns:xlink="http://www.w3.org/1999/xlink" x="0px" y="0px"
	 viewBox="0 0 777.2 241" style="enable-background:new 0 0 777.2 241;" xml:space="preserve">
<style type="text/css">
	.st0{fill:#D7BE69;}
	.st1{fill:#FFFFFF;}
	.st2{enable-background:new    ;}
</style>
<g>
	<g>
		<g>
			<g>
				<path class="st0" d="M66.2,50.8L66.2,50.8l1-1.9H115l22.1,6.2l35.2-12.8c0,0,60.9-29.6,107.4-33.3c30.3-2.4,67.9-3.5,100.1-0.7
					c-15.9-1.9-33.2-3-51.8-3c-96.3,0-164.1,36.6-176.8,44c-4.9,2.9-9.1,4.2-12.9,4.2c-7.6,0-11.2-5.3-12.7-9.8
					c-11.2-1.7-51.9-7.8-79.9-13.2c3.6,3.8,7.5,8.4,9.9,12.6c1.5,2.5,3.3,5.6-16.6,61.3L66.2,50.8z"/>
			</g>
			<g>
				<path class="st0" d="M535.6,70l-2.4,0.5l-1.7-1.8c-0.4-0.4-34.1-35.1-109.4-53c0.7,0.2,1.6,0.5,2.3,0.7c4.9,1.7,10.7,4,16.8,6.8
					c18.4,5.9,33.6,12.7,45.5,18.9c18,9.4,30.7,18.8,39,25.6c5,2.9,7.8,4.5,7.8,4.5l24.3-1.7c8.3-1.3,18.6-2.2,30.4-2.2
					c0.4,0,0.7,0,1.2,0l11.8-0.8c0,0,3,0.6,7.7,1.8c9.8,0.8,19.8,2.4,29.7,4.5c-18.6-5.4-38.7-8.1-59.9-8.1
					C553.6,66,535.8,70,535.6,70z"/>
			</g>
		</g>
		<g>
			<g>
				<g>
					<path class="st1" d="M771.5,173c0,0-25.2-67.8-124.2-100.8c-57.4-19.1-112.6-6.5-112.6-6.5S473.8,1,327.8,1
						c-93.8,0-160.6,33.9-179,44.6c-18.4,10.7-19.8-5.7-19.8-5.7s-60.8-8.9-92.3-15.7c-6.3-1.4,9.3,10.9,15.1,20.9
						c3.9,6.7-43,127.8-43,127.8l60-118h49.6c0,0,14,17.1,26.9,9.8c12.8-7.3,85-53.6,185.2-53.8c140.2-0.2,202.9,69.7,202.9,69.7
						s48-18.8,118.8,1.1C720.5,101,771.5,173,771.5,173z"/>
				</g>
			</g>
			<g>
				<g>
					<path class="st1" d="M184.4,116.4c0,0,98.7,46.5,191.8,27.8c82.6-16.5,157.4-63.4,157.4-63.4l-7-6.7c0,0-95.4,51.1-151,60.4
						C294.6,148.2,184.4,116.4,184.4,116.4z"/>
				</g>
			</g>
			<g>
				<g>
					<path class="st1" d="M480.7,84.3H186.1c0,0,48.8-38.6,94.2-49.7c45.3-11.2,88.8-11.8,133.8,1.9c39.8,12.3,53.8,30.7,53.8,30.7
						s-30.4-21.7-69.5-30c-30.6-6.7-76.8-4.8-119.6,9.4c-29.8,9.8-54.2,28.4-54.2,28.4L480.7,84.3z"/>
				</g>
			</g>
		</g>
		<g>
			<g>
				<path class="st1" d="M172.9,49.9c0,0-29,17.7-48.7,39.1c-19.8,21.5-31.4,35.2-31.4,35.2l35.1-60.9L172.9,49.9z"/>
			</g>
		</g>
		<g>
			<path class="st1" d="M132.8,147.5c30.7,0,57.9,13.8,74.7,34.8c-13.9-27.1-42-45.7-74.5-45.7c-32.1,0-60,18.1-74,44.6
				C75.6,160.8,102.5,147.5,132.8,147.5z"/>
		</g>
		<g>
			<path class="st1" d="M629,147.5c30.7,0,58,13.8,74.7,34.8c-13.8-27.1-42-45.7-74.6-45.7c-32.1,0-60,18.1-74,44.6
				C572,160.8,598.8,147.5,629,147.5z"/>
		</g>
	</g>
	<g class="st2">
		<path class="st1" d="M39.4,222.4c1.3,1.7,1.9,3.7,1.9,6.1c0,3.5-1.4,6.1-4.2,8c-2.8,1.9-6.8,2.8-12,2.8H3.9v-39.4H24
			c5,0,8.8,0.9,11.5,2.8c2.6,1.9,3.9,4.4,3.9,7.5c0,1.9-0.5,3.6-1.4,5c-0.9,1.5-2.2,2.7-3.9,3.5C36.4,219.5,38.1,220.7,39.4,222.4z
			 M14.9,207.9v7.6h7.6c3.7,0,5.6-1.3,5.6-3.8c0-2.5-1.9-3.8-5.6-3.8H14.9z M30.1,227.2c0-2.7-1.9-4-5.8-4h-9.3v8h9.3
			C28.1,231.2,30.1,229.8,30.1,227.2z"/>
		<path class="st1" d="M49.9,199.8h11.1v30.6h18.8v8.8H49.9V199.8z"/>
		<path class="st1" d="M113.9,231.6H97.2l-3.1,7.7H82.8l17.4-39.4h11l17.4,39.4H117L113.9,231.6z M110.6,223.4l-5.1-12.6l-5.1,12.6
			H110.6z"/>
		<path class="st1" d="M142.5,237.4c-3.3-1.7-5.9-4.2-7.7-7.3c-1.9-3.1-2.8-6.6-2.8-10.6s0.9-7.5,2.8-10.6c1.9-3.1,4.5-5.5,7.7-7.3
			c3.3-1.7,7-2.6,11.1-2.6c3.6,0,6.8,0.6,9.7,1.9c2.9,1.3,5.3,3.1,7.2,5.5l-7.1,6.4c-2.5-3.1-5.6-4.6-9.3-4.6c-2.1,0-4,0.5-5.7,1.4
			c-1.7,0.9-3,2.3-3.9,4c-0.9,1.7-1.4,3.7-1.4,5.9c0,2.2,0.5,4.2,1.4,5.9c0.9,1.7,2.2,3,3.9,4c1.7,0.9,3.6,1.4,5.7,1.4
			c3.6,0,6.7-1.5,9.3-4.6l7.1,6.4c-1.9,2.4-4.3,4.2-7.2,5.5c-2.9,1.3-6.1,1.9-9.7,1.9C149.4,240,145.7,239.1,142.5,237.4z"/>
		<path class="st1" d="M193.4,224.9l-4.2,4.4v9.9h-11v-39.4h11v16.4l15.2-16.4h12.3l-16.1,17.5l16.9,22h-12.9L193.4,224.9z"/>
		<path class="st1" d="M247.1,238.8c-3-0.8-5.4-1.8-7.3-3.2l3.7-8.2c1.8,1.2,3.8,2.1,6.1,2.8c2.3,0.7,4.6,1.1,6.9,1.1
			c4.3,0,6.4-1.1,6.4-3.2c0-1.1-0.6-2-1.8-2.5c-1.2-0.5-3.2-1.1-5.9-1.7c-3-0.6-5.4-1.3-7.4-2.1c-2-0.7-3.7-1.9-5.1-3.5
			c-1.4-1.6-2.1-3.8-2.1-6.5c0-2.4,0.7-4.6,2-6.5c1.3-1.9,3.3-3.5,5.9-4.6c2.6-1.1,5.8-1.7,9.6-1.7c2.6,0,5.1,0.3,7.6,0.9
			c2.5,0.6,4.7,1.4,6.6,2.6l-3.4,8.3c-3.7-2-7.4-3-10.9-3c-2.2,0-3.8,0.3-4.8,1c-1,0.7-1.5,1.5-1.5,2.6c0,1.1,0.6,1.8,1.8,2.4
			c1.2,0.5,3.1,1.1,5.8,1.6c3,0.6,5.5,1.3,7.4,2.1c2,0.7,3.7,1.9,5.1,3.5c1.4,1.6,2.2,3.8,2.2,6.5c0,2.4-0.7,4.5-2,6.4
			c-1.3,1.9-3.3,3.4-5.9,4.6c-2.6,1.1-5.8,1.7-9.6,1.7C253.2,240,250.1,239.6,247.1,238.8z"/>
		<path class="st1" d="M289.5,208.7h-12.1v-8.8h35.3v8.8h-12v30.6h-11.1V208.7z"/>
		<path class="st1" d="M344,231.6h-16.6l-3.1,7.7H313l17.4-39.4h11l17.4,39.4h-11.6L344,231.6z M340.8,223.4l-5.1-12.6l-5.1,12.6
			H340.8z"/>
		<path class="st1" d="M381.9,228.8h-6.1v10.5h-11.1v-39.4h18c3.6,0,6.7,0.6,9.3,1.8c2.6,1.2,4.6,2.9,6.1,5.1
			c1.4,2.2,2.1,4.8,2.1,7.7c0,2.9-0.7,5.3-2,7.5c-1.3,2.1-3.2,3.8-5.7,5l8.5,12.4H389L381.9,228.8z M387.2,210.1
			c-1.2-1-2.9-1.5-5.2-1.5h-6.2v11.5h6.2c2.3,0,4-0.5,5.2-1.5c1.2-1,1.7-2.4,1.7-4.3C388.9,212.6,388.3,211.1,387.2,210.1z"/>
		<path class="st1" d="M436.8,237.4c-3.3-1.7-5.9-4.2-7.7-7.3c-1.9-3.1-2.8-6.6-2.8-10.6s0.9-7.5,2.8-10.6c1.9-3.1,4.5-5.5,7.7-7.3
			c3.3-1.7,7-2.6,11.1-2.6c3.6,0,6.8,0.6,9.7,1.9c2.9,1.3,5.3,3.1,7.2,5.5l-7.1,6.4c-2.5-3.1-5.6-4.6-9.3-4.6c-2.1,0-4,0.5-5.7,1.4
			c-1.7,0.9-3,2.3-3.9,4c-0.9,1.7-1.4,3.7-1.4,5.9c0,2.2,0.5,4.2,1.4,5.9s2.2,3,3.9,4c1.7,0.9,3.6,1.4,5.7,1.4
			c3.6,0,6.7-1.5,9.3-4.6l7.1,6.4c-1.9,2.4-4.3,4.2-7.2,5.5c-2.9,1.3-6.1,1.9-9.7,1.9C443.8,240,440.1,239.1,436.8,237.4z"/>
		<path class="st1" d="M498.3,231.6h-16.6l-3.1,7.7h-11.4l17.4-39.4h11l17.4,39.4h-11.6L498.3,231.6z M495,223.4l-5.1-12.6
			l-5.1,12.6H495z"/>
		<path class="st1" d="M536.1,228.8H530v10.5h-11.1v-39.4h18c3.6,0,6.7,0.6,9.3,1.8c2.6,1.2,4.6,2.9,6.1,5.1
			c1.4,2.2,2.1,4.8,2.1,7.7c0,2.9-0.7,5.3-2,7.5c-1.3,2.1-3.2,3.8-5.7,5l8.5,12.4h-11.9L536.1,228.8z M541.4,210.1
			c-1.2-1-2.9-1.5-5.2-1.5H530v11.5h6.2c2.3,0,4-0.5,5.2-1.5c1.2-1,1.7-2.4,1.7-4.3C543.1,212.6,542.6,211.1,541.4,210.1z"/>
		<path class="st1" d="M644.2,199.8l-12.8,39.4h-11.9l-7.5-24l-7.9,24h-11.9l-12.8-39.4h11.5l7.9,25.2l8.3-25.2h10.2l7.9,25.4
			l8.3-25.4H644.2z"/>
		<path class="st1" d="M676,231.6h-16.6l-3.1,7.7H645l17.4-39.4h11l17.4,39.4h-11.6L676,231.6z M672.8,223.4l-5.1-12.6l-5.1,12.6
			H672.8z"/>
		<path class="st1" d="M701.2,238.8c-3-0.8-5.4-1.8-7.3-3.2l3.7-8.2c1.8,1.2,3.8,2.1,6.1,2.8c2.3,0.7,4.6,1.1,6.9,1.1
			c4.3,0,6.4-1.1,6.4-3.2c0-1.1-0.6-2-1.8-2.5c-1.2-0.5-3.2-1.1-5.9-1.7c-3-0.6-5.4-1.3-7.4-2.1c-2-0.7-3.7-1.9-5.1-3.5
			c-1.4-1.6-2.1-3.8-2.1-6.5c0-2.4,0.7-4.6,2-6.5c1.3-1.9,3.3-3.5,5.9-4.6c2.6-1.1,5.8-1.7,9.6-1.7c2.6,0,5.1,0.3,7.6,0.9
			c2.5,0.6,4.7,1.4,6.6,2.6l-3.4,8.3c-3.7-2-7.4-3-10.9-3c-2.2,0-3.8,0.3-4.8,1c-1,0.7-1.5,1.5-1.5,2.6c0,1.1,0.6,1.8,1.8,2.4
			c1.2,0.5,3.1,1.1,5.8,1.6c3,0.6,5.5,1.3,7.5,2.1c2,0.7,3.7,1.9,5.1,3.5c1.4,1.6,2.2,3.8,2.2,6.5c0,2.4-0.7,4.5-2,6.4
			c-1.3,1.9-3.3,3.4-5.9,4.6c-2.6,1.1-5.8,1.7-9.6,1.7C707.3,240,704.2,239.6,701.2,238.8z"/>
		<path class="st1" d="M773.3,199.8v39.4h-11.1v-15.4H747v15.4h-11.1v-39.4H747v14.8h15.2v-14.8H773.3z"/>
	</g>
</g>
</svg>
