<?xml version="1.0" encoding="utf-8"?>
<!-- Generator: Adobe Illustrator 24.2.3, SVG Export Plug-In . SVG Version: 6.00 Build 0)  -->
<svg version="1.1" id="Capa_1" xmlns="http://www.w3.org/2000/svg" xmlns:xlink="http://www.w3.org/1999/xlink" x="0px" y="0px"
	 viewBox="0 0 790.2 436.9" style="enable-background:new 0 0 790.2 436.9;" xml:space="preserve">
<style type="text/css">
	.st0{fill:#B2AB99;}
	.st1{fill:#FFFFFF;}
</style>
<g>
	<g>
		<path class="st0" d="M690.6,59.4c0,9.8-1.4,17.8-3.1,17.8c-1.7,0-3.1-8-3.1-17.8c0-9.8,1.4-17.8,3.1-17.8
			C689.2,41.6,690.6,49.6,690.6,59.4z"/>
	</g>
	<g>
		<path class="st0" d="M687.5,62.5c-9.8,0-17.8-1.4-17.8-3.1c0-1.7,8-3.1,17.8-3.1c9.8,0,17.8,1.4,17.8,3.1
			C705.3,61.1,697.3,62.5,687.5,62.5z"/>
	</g>
</g>
<g>
	<g>
		<path class="st0" d="M518.3,56.3c0,6.7-1,12.1-2.1,12.1c-1.2,0-2.1-5.4-2.1-12.1c0-6.6,0.9-12,2.1-12
			C517.3,44.3,518.3,49.7,518.3,56.3z"/>
	</g>
	<g>
		<path class="st0" d="M516.2,58.4c-6.7,0-12-1-12-2.1c0-1.1,5.4-2.1,12-2.1c6.6,0,12.1,0.9,12.1,2.1
			C528.2,57.5,522.8,58.4,516.2,58.4z"/>
	</g>
</g>
<g>
	<g>
		<g>
			<path class="st0" d="M440.8,72.4c0,6.6-5.3,11.9-11.9,11.9S417,79,417,72.4c0-6.5,5.3-11.9,11.9-11.9S440.8,65.9,440.8,72.4z"/>
		</g>
		<g>
			<path class="st0" d="M371.7,48.7c0,6.6-5.3,11.9-11.9,11.9c-6.6,0-11.9-5.3-11.9-11.9c0-6.6,5.3-11.9,11.9-11.9
				C366.3,36.8,371.7,42.1,371.7,48.7z"/>
		</g>
		<g>
			<path class="st0" d="M23.7,212.9c0,6.6-5.3,11.9-11.9,11.9c-6.6,0-11.9-5.3-11.9-11.9c0-6.6,5.3-11.9,11.9-11.9
				C18.4,201.1,23.7,206.4,23.7,212.9z"/>
		</g>
		<g>
			<path class="st0" d="M603.6,91.8c0,9.4-7.6,17-17,17c-9.4,0-17-7.6-17-17c0-9.3,7.6-16.9,17-16.9C596,74.9,603.6,82.4,603.6,91.8
				z"/>
		</g>
		<g>
			<path class="st0" d="M417,36.8c0,3.4-2.7,6.2-6.2,6.2c-3.4,0-6.2-2.8-6.2-6.2c0-3.4,2.8-6.2,6.2-6.2
				C414.3,30.6,417,33.4,417,36.8z"/>
		</g>
		<g>
			<path class="st0" d="M286.6,24.4c0,3.4-2.8,6.2-6.2,6.2c-3.4,0-6.2-2.8-6.2-6.2s2.8-6.2,6.2-6.2C283.8,18.2,286.6,21,286.6,24.4z
				"/>
		</g>
		<g>
			<path class="st0" d="M29.9,124.4c0,3.4-2.8,6.2-6.2,6.2c-3.4,0-6.2-2.8-6.2-6.2c0-3.4,2.8-6.2,6.2-6.2
				C27.2,118.2,29.9,121,29.9,124.4z"/>
		</g>
		<g>
			<path class="st0" d="M646.2,145c0,3.4-2.8,6.2-6.2,6.2c-3.4,0-6.2-2.8-6.2-6.2s2.7-6.2,6.2-6.2
				C643.4,138.8,646.2,141.6,646.2,145z"/>
		</g>
		<g>
			<path class="st0" d="M713.9,127.5c0,3.4-2.8,6.2-6.2,6.2c-3.4,0-6.2-2.8-6.2-6.2c0-3.4,2.8-6.2,6.2-6.2
				C711.1,121.3,713.9,124.1,713.9,127.5z"/>
		</g>
		<g>
			<g>
				<path class="st0" d="M33.9,241.6c0,14,8.8,25.9,21.1,30.7c17.7-46.6,34.3-93.9,34.4-101.6c-2.3-3.7-6.3-8-9.5-11.5
					c-5.3-5.6-7.4-8-6-11.2c0.7-1.6,2.6-3.2,5.9-2.5c29.3,6.3,86.5,14.6,87.1,14.7l3.2,0.5l0.3,3.2c0.1,0.9,0.7,5.1,4.6,5.1
					c1.4,0,4-0.5,8.1-2.9c17.2-10,80.6-42.7,171.5-42.7c72.2,0,122.2,16.9,151.5,31c26.3,12.7,40.9,25.4,45.6,29.8
					c5.5-1.1,20.4-3.6,40.5-3.6c23.6,0,45.8,3.4,66.2,10.2c92.4,30.8,118,92.3,120,97.4c2-4.2,3.1-8.9,3.1-13.9
					c0-2.6-0.3-5.1-0.9-7.4c6.2-9.4,9.8-20.6,9.8-32.7c0-19.4-9.2-36.6-23.5-47.5c0.7-2.6,1.1-5.3,1.1-8.1
					c0-16.6-13.5-30.1-30.1-30.1c-16.6,0-30.1,13.5-30.1,30.1c0,0.2,0,0.4,0,0.6c-4.3,1.8-8.3,4.1-12.1,6.8
					c-5.5-10.4-16.5-17.5-29-17.5c-9.4,0-17.9,3.9-23.8,10.3c-8.7-7.4-20.1-12-32.5-12c-4.8,0-9.4,0.7-13.8,2
					c-6.7-25.6-30-44.4-57.6-44.4c-14.3,0-27.4,5-37.7,13.4c-7.6-18-25.5-30.6-46.3-30.6c-7.6,0-14.8,1.7-21.2,4.7
					c-5.6-10.3-16.5-17.4-29-17.4c-10.1,0-19.1,4.6-25.2,11.8c-8.8-14.3-24.7-23.9-42.7-23.9c-12.1,0-23.3,4.3-32,11.5
					c-6-26.5-29.7-46.3-58.1-46.3c-31.1,0-56.6,23.8-59.3,54.1c-13.7,2.5-25.4,10.5-32.8,21.7c-5.1-3.2-11.1-5.2-17.7-5.2
					c-11.7,0-22,6.1-27.8,15.3c-3.8-2.7-8.1-4.9-12.7-6.5c0.2-0.9,0.3-1.8,0.3-2.7c0-9.2-7.5-16.6-16.6-16.6
					c-9.2,0-16.6,7.4-16.6,16.6c0,0.9,0.1,1.8,0.3,2.7c-19.7,6.8-33.8,25.5-33.8,47.5c0,16,7.5,30.2,19.1,39.4
					C39.9,219.9,33.9,230,33.9,241.6z"/>
			</g>
			<g>
				<path class="st0" d="M106.8,174.5L106.8,174.5l0.9-1.8h45.3l20.9,5.9l33.3-12.1c0,0,57.7-28,101.7-31.5
					c28.7-2.3,64.3-3.3,94.8-0.7c-15.1-1.8-31.4-2.8-49-2.8c-91.2,0-155.4,34.6-167.4,41.6c-4.6,2.7-8.6,4-12.2,4
					c-7.2,0-10.6-5-12-9.3c-10.6-1.6-49.1-7.4-75.6-12.5c3.4,3.6,7.1,7.9,9.4,11.9c1.4,2.4,3.1,5.3-15.7,57.9L106.8,174.5z"/>
			</g>
			<g>
				<path class="st0" d="M551.2,192.6l-2.3,0.5l-1.6-1.7c-0.4-0.4-32.3-33.2-103.6-50.1c0.7,0.2,1.5,0.5,2.2,0.7
					c4.6,1.6,10.1,3.8,15.9,6.4c17.4,5.6,31.8,12,43.1,17.9c17,8.9,29.1,17.8,36.9,24.2c4.7,2.7,7.4,4.3,7.4,4.3l23-1.6
					c7.9-1.2,17.6-2.1,28.8-2.1c0.4,0,0.7,0,1.1,0l11.2-0.8c0,0,2.8,0.6,7.3,1.7c9.3,0.8,18.7,2.3,28.1,4.3
					c-17.6-5.1-36.6-7.7-56.7-7.7C568.2,188.8,551.4,192.6,551.2,192.6z"/>
			</g>
		</g>
		<g>
			<g>
				<g>
					<path class="st1" d="M774.5,290c0,0-23.9-64.1-117.6-95.3c-54.3-18.1-106.6-6.1-106.6-6.1s-57.6-61.2-195.8-61.2
						c-88.8,0-152,32-169.5,42.2c-17.4,10.1-18.7-5.4-18.7-5.4s-57.6-8.4-87.4-14.8c-6-1.3,8.8,10.3,14.3,19.8
						C96.9,175.5,52.5,290,52.5,290l56.8-111.5h47c0,0,13.3,16.2,25.5,9.3c12.1-6.9,80.5-50.7,175.3-50.9
						c132.7-0.2,192.1,65.9,192.1,65.9s45.4-17.8,112.5,1C726.2,221.9,774.5,290,774.5,290z"/>
				</g>
			</g>
			<g>
				<g>
					<path class="st1" d="M218.7,236.5c0,0,93.4,44,181.6,26.3c78.2-15.6,149-59.9,149-59.9l-6.6-6.3c0,0-90.3,48.3-143,57.1
						C323,266.5,218.7,236.5,218.7,236.5z"/>
				</g>
			</g>
			<g>
				<g>
					<path class="st1" d="M499.2,206.1H220.3c0,0,46.2-36.5,89.2-47c42.9-10.6,84.1-11.2,126.7,1.8c37.7,11.6,50.9,29,50.9,29
						s-28.8-20.5-65.8-28.4c-29-6.3-72.7-4.5-113.2,8.9c-28.2,9.3-51.3,26.8-51.3,26.8L499.2,206.1z"/>
				</g>
			</g>
		</g>
		<g>
			<g>
				<path class="st1" d="M207.8,173.6c0,0-27.5,16.7-46.1,37C143,230.9,132,243.9,132,243.9l33.2-57.6L207.8,173.6z"/>
			</g>
		</g>
		<g>
			<path class="st1" d="M169.8,265.9c29.1,0,54.8,13,70.7,32.9c-13.2-25.6-39.8-43.2-70.5-43.2c-30.4,0-56.8,17.1-70.1,42.2
				C115.7,278.4,141.2,265.9,169.8,265.9z"/>
		</g>
		<g>
			<path class="st1" d="M639.6,265.9c29.1,0,54.9,13,70.7,32.9c-13.1-25.6-39.8-43.2-70.6-43.2c-30.4,0-56.8,17.1-70.1,42.2
				C585.6,278.4,611,265.9,639.6,265.9z"/>
		</g>
	</g>
	<g>
		<g>
			<path class="st0" d="M105,54.6c0,9.8-1.4,17.8-3.1,17.8c-1.7,0-3.1-8-3.1-17.8c0-9.8,1.4-17.8,3.1-17.8
				C103.7,36.9,105,44.8,105,54.6z"/>
		</g>
		<g>
			<path class="st0" d="M101.9,57.7c-9.8,0-17.8-1.4-17.8-3.1c0-1.7,8-3.1,17.8-3.1c9.8,0,17.8,1.4,17.8,3.1
				C119.7,56.4,111.8,57.7,101.9,57.7z"/>
		</g>
	</g>
	<g>
		<g>
			<path class="st0" d="M137.7,16c0,6.7-0.9,12.1-2.1,12.1c-1.2,0-2.1-5.4-2.1-12.1c0-6.7,0.9-12,2.1-12C136.8,4,137.7,9.4,137.7,16
				z"/>
		</g>
		<g>
			<path class="st0" d="M135.6,18.1c-6.6,0-12.1-1-12.1-2.1c0-1.2,5.4-2.1,12.1-2.1c6.6,0,12.1,1,12.1,2.1
				C147.6,17.2,142.2,18.1,135.6,18.1z"/>
		</g>
	</g>
	<g>
		<path class="st1" d="M162.4,345c1.8,2.3,2.7,5.2,2.7,8.5c0,4.8-1.9,8.5-5.8,11.2c-3.9,2.6-9.5,3.9-16.8,3.9h-29.7v-55.1h28.2
			c7,0,12.4,1.3,16,3.9c3.7,2.6,5.5,6.1,5.5,10.5c0,2.6-0.6,5-1.9,7c-1.3,2.1-3.1,3.7-5.5,4.9C158.2,341,160.6,342.7,162.4,345z
			 M128.1,324.8v10.6h10.7c5.2,0,7.9-1.8,7.9-5.3c0-3.5-2.6-5.3-7.9-5.3H128.1z M149.4,351.8c0-3.7-2.7-5.6-8.2-5.6h-13.1v11.2h13.1
			C146.6,357.4,149.4,355.5,149.4,351.8z"/>
		<path class="st1" d="M177.9,313.5h15.6v42.7h26.3v12.4h-41.9V313.5z"/>
		<path class="st1" d="M268.2,357.9h-23.3l-4.3,10.7h-15.9l24.3-55.1h15.3l24.4,55.1h-16.2L268.2,357.9z M263.6,346.4l-7.1-17.6
			l-7.1,17.6H263.6z"/>
		<path class="st1" d="M309,366.1c-4.6-2.4-8.2-5.8-10.8-10.2c-2.6-4.4-3.9-9.3-3.9-14.8s1.3-10.4,3.9-14.8
			c2.6-4.4,6.2-7.7,10.8-10.2c4.6-2.4,9.8-3.7,15.5-3.7c5,0,9.6,0.9,13.6,2.7c4,1.8,7.4,4.4,10.1,7.7l-9.9,9
			c-3.6-4.3-7.9-6.5-13-6.5c-3,0-5.7,0.7-8,2c-2.3,1.3-4.1,3.2-5.4,5.5c-1.3,2.4-1.9,5.1-1.9,8.2c0,3.1,0.6,5.8,1.9,8.2
			c1.3,2.4,3.1,4.2,5.4,5.5c2.3,1.3,5,2,8,2c5.1,0,9.4-2.2,13-6.5l9.9,9c-2.7,3.4-6,5.9-10.1,7.7c-4,1.8-8.6,2.7-13.6,2.7
			C318.7,369.7,313.5,368.5,309,366.1z"/>
		<path class="st1" d="M381.1,348.6l-5.8,6.2v13.8h-15.4v-55.1h15.4v22.9l21.3-22.9h17.2l-22.5,24.4l23.7,30.7h-18.1L381.1,348.6z"
			/>
		<path class="st1" d="M457.7,368.1c-4.2-1.1-7.6-2.6-10.2-4.4l5.1-11.5c2.5,1.6,5.3,2.9,8.6,3.9c3.3,1,6.5,1.5,9.6,1.5
			c6,0,9-1.5,9-4.5c0-1.6-0.9-2.7-2.6-3.5c-1.7-0.8-4.4-1.6-8.2-2.4c-4.1-0.9-7.6-1.8-10.4-2.9c-2.8-1-5.2-2.7-7.2-4.9
			c-2-2.3-3-5.3-3-9.1c0-3.4,0.9-6.4,2.8-9.1c1.8-2.7,4.6-4.8,8.2-6.4c3.6-1.6,8.1-2.4,13.4-2.4c3.6,0,7.2,0.4,10.7,1.2
			c3.5,0.8,6.6,2,9.3,3.6l-4.8,11.6c-5.2-2.8-10.3-4.2-15.3-4.2c-3.1,0-5.4,0.5-6.8,1.4c-1.4,0.9-2.1,2.1-2.1,3.6
			c0,1.5,0.8,2.6,2.5,3.3c1.7,0.7,4.4,1.5,8.1,2.3c4.2,0.9,7.7,1.8,10.4,2.9s5.1,2.6,7.2,4.9s3,5.3,3,9.1c0,3.3-0.9,6.3-2.8,9
			s-4.6,4.8-8.3,6.4c-3.7,1.6-8.1,2.4-13.4,2.4C466.2,369.7,461.9,369.2,457.7,368.1z"/>
		<path class="st1" d="M517.9,325.9h-16.9v-12.4h49.3v12.4h-16.8v42.7h-15.6V325.9z"/>
		<path class="st1" d="M595,357.9h-23.3l-4.3,10.7h-15.9l24.3-55.1h15.3l24.4,55.1h-16.2L595,357.9z M590.4,346.4l-7.1-17.6
			l-7.1,17.6H590.4z"/>
		<path class="st1" d="M648.7,354h-8.5v14.6h-15.6v-55.1h25.2c5,0,9.3,0.8,13,2.5c3.7,1.7,6.5,4,8.5,7.1c2,3.1,3,6.7,3,10.8
			c0,4-0.9,7.5-2.8,10.4c-1.9,3-4.5,5.3-8,7l11.9,17.3h-16.7L648.7,354z M656.1,327.9c-1.6-1.4-4-2.1-7.2-2.1h-8.7v16.1h8.7
			c3.2,0,5.6-0.7,7.2-2.1c1.6-1.4,2.4-3.4,2.4-5.9C658.5,331.3,657.7,329.4,656.1,327.9z"/>
	</g>
	<g>
		<path class="st1" d="M201.6,423.5c-3.3-1.8-6-4.3-7.9-7.5c-1.9-3.2-2.9-6.8-2.9-10.8s1-7.6,2.9-10.8c1.9-3.2,4.5-5.7,7.9-7.5
			c3.3-1.8,7.1-2.7,11.3-2.7c3.5,0,6.7,0.6,9.5,1.9c2.8,1.2,5.2,3,7.1,5.3l-6,5.6c-2.7-3.2-6.1-4.7-10.2-4.7c-2.5,0-4.7,0.5-6.7,1.6
			c-2,1.1-3.5,2.6-4.6,4.6c-1.1,2-1.6,4.2-1.6,6.7c0,2.5,0.5,4.7,1.6,6.7c1.1,2,2.6,3.5,4.6,4.6c2,1.1,4.2,1.6,6.7,1.6
			c4.1,0,7.4-1.6,10.2-4.8l6,5.6c-1.9,2.4-4.3,4.1-7.2,5.4c-2.9,1.2-6,1.9-9.5,1.9C208.7,426.2,205,425.3,201.6,423.5z"/>
		<path class="st1" d="M271,416.8h-18.8l-3.6,8.7H239L257,385h9.3l18.1,40.5h-9.8L271,416.8z M268,409.7l-6.4-15.5l-6.4,15.5H268z"
			/>
		<path class="st1" d="M323.7,425.5l-7.8-11.3h-0.5h-8.2v11.3h-9.4V385h17.5c3.6,0,6.7,0.6,9.3,1.8c2.6,1.2,4.7,2.9,6.1,5.1
			c1.4,2.2,2.1,4.8,2.1,7.8s-0.7,5.6-2.2,7.8c-1.4,2.2-3.5,3.8-6.2,5l9.1,13H323.7z M321.3,394.4c-1.5-1.2-3.6-1.8-6.4-1.8h-7.6
			v14.1h7.6c2.8,0,5-0.6,6.4-1.9c1.5-1.2,2.2-3,2.2-5.2C323.5,397.4,322.8,395.6,321.3,394.4z"/>
		<path class="st1" d="M436.5,385l-13.2,40.5h-10.1l-8.9-27.4l-9.2,27.4h-10L371.8,385h9.7l9.1,28.5l9.5-28.5h8.7l9.3,28.7l9.4-28.7
			H436.5z"/>
		<path class="st1" d="M476.3,416.8h-18.8l-3.6,8.7h-9.6l18.1-40.5h9.3l18.1,40.5h-9.8L476.3,416.8z M473.4,409.7l-6.4-15.5
			l-6.4,15.5H473.4z"/>
		<path class="st1" d="M507.2,424.9c-3-0.9-5.4-2-7.2-3.4l3.2-7.1c1.7,1.3,3.8,2.3,6.2,3.1c2.4,0.8,4.8,1.2,7.2,1.2
			c2.7,0,4.6-0.4,5.9-1.2c1.3-0.8,1.9-1.8,1.9-3.2c0-1-0.4-1.8-1.1-2.4c-0.8-0.6-1.7-1.1-2.9-1.5s-2.8-0.8-4.8-1.3
			c-3.1-0.7-5.6-1.5-7.6-2.2c-2-0.7-3.7-1.9-5.1-3.5c-1.4-1.6-2.1-3.8-2.1-6.5c0-2.4,0.6-4.5,1.9-6.4c1.3-1.9,3.2-3.4,5.8-4.5
			c2.6-1.1,5.7-1.7,9.4-1.7c2.6,0,5.1,0.3,7.6,0.9c2.5,0.6,4.6,1.5,6.5,2.7l-2.9,7.1c-3.7-2.1-7.5-3.2-11.2-3.2
			c-2.6,0-4.6,0.4-5.8,1.3c-1.3,0.8-1.9,2-1.9,3.4s0.7,2.4,2.2,3.1c1.4,0.7,3.7,1.3,6.6,2c3.1,0.7,5.6,1.5,7.6,2.2
			c2,0.7,3.7,1.9,5.1,3.5c1.4,1.6,2.1,3.7,2.1,6.4c0,2.3-0.6,4.4-1.9,6.3c-1.3,1.9-3.2,3.4-5.8,4.5s-5.7,1.7-9.4,1.7
			C513.3,426.2,510.2,425.7,507.2,424.9z"/>
		<path class="st1" d="M586.5,385v40.5h-9.4v-16.6h-18.4v16.6h-9.4V385h9.4v16h18.4v-16H586.5z"/>
	</g>
</g>
</svg>
